<svg width="40" height="41" viewBox="0 0 40 41" fill="none" xmlns="http://www.w3.org/2000/svg">
<path d="M6.24997 23.469L6.49995 23.3247V23.036V8.5C6.49995 8.10218 6.65798 7.72064 6.93929 7.43934C7.22059 7.15804 7.60212 7 7.99995 7C8.39777 7 8.7793 7.15804 9.06061 7.43934C9.34191 7.72064 9.49995 8.10218 9.49995 8.5V23.036V23.3247L9.74992 23.469C10.2819 23.7762 10.7237 24.218 11.0309 24.7501C11.3381 25.2821 11.4998 25.8857 11.4998 26.5C11.4998 27.1143 11.3381 27.7179 11.0309 28.2499C10.7237 28.782 10.2819 29.2238 9.74992 29.531L9.49995 29.6753V29.964V32.5C9.49995 32.8978 9.34191 33.2794 9.06061 33.5607C8.7793 33.842 8.39777 34 7.99995 34C7.60212 34 7.22059 33.842 6.93929 33.5607C6.65798 33.2794 6.49995 32.8978 6.49995 32.5V29.964V29.6753L6.24997 29.531C5.71794 29.2238 5.27615 28.782 4.96899 28.2499C4.66183 27.7179 4.50012 27.1143 4.50012 26.5C4.50012 25.8857 4.66183 25.2821 4.96899 24.7501C5.27615 24.218 5.71794 23.7762 6.24997 23.469ZM18.25 11.469L18.4999 11.3247V11.036V8.5C18.4999 8.10218 18.658 7.72064 18.9393 7.43934C19.2206 7.15804 19.6021 7 19.9999 7C20.3978 7 20.7793 7.15804 21.0606 7.43934C21.3419 7.72064 21.4999 8.10218 21.4999 8.5V11.036V11.3247L21.7499 11.469C22.2819 11.7762 22.7237 12.218 23.0309 12.7501C23.3381 13.2821 23.4998 13.8857 23.4998 14.5C23.4998 15.1143 23.3381 15.7179 23.0309 16.2499C22.7237 16.782 22.2819 17.2238 21.7499 17.531L21.4999 17.6753V17.964V32.5C21.4999 32.8978 21.3419 33.2794 21.0606 33.5607C20.7793 33.842 20.3978 34 19.9999 34C19.6021 34 19.2206 33.842 18.9393 33.5607C18.658 33.2794 18.4999 32.8978 18.4999 32.5V17.964V17.6753L18.25 17.531C17.7179 17.2238 17.2762 16.782 16.969 16.2499C16.6618 15.7179 16.5001 15.1143 16.5001 14.5C16.5001 13.8857 16.6618 13.2821 16.969 12.7501C17.2762 12.218 17.7179 11.7762 18.25 11.469ZM33.4999 23.036V23.3247L33.7499 23.469C34.2819 23.7762 34.7237 24.218 35.0309 24.7501C35.3381 25.2821 35.4998 25.8857 35.4998 26.5C35.4998 27.1143 35.3381 27.7179 35.0309 28.2499C34.7237 28.782 34.2819 29.2238 33.7499 29.531L33.4999 29.6753V29.964V32.5C33.4999 32.8978 33.3419 33.2794 33.0606 33.5607C32.7793 33.842 32.3978 34 31.9999 34C31.6021 34 31.2206 33.842 30.9393 33.5607C30.658 33.2794 30.4999 32.8978 30.4999 32.5V29.964V29.6753L30.25 29.531C29.7179 29.2238 29.2761 28.782 28.969 28.2499C28.6618 27.7179 28.5001 27.1143 28.5001 26.5C28.5001 25.8857 28.6618 25.2821 28.969 24.7501C29.2761 24.218 29.7179 23.7762 30.25 23.469L30.4999 23.3247V23.036V8.5C30.4999 8.10218 30.658 7.72064 30.9393 7.43934C31.2206 7.15804 31.6021 7 31.9999 7C32.3978 7 32.7793 7.15804 33.0606 7.43934C33.3419 7.72064 33.4999 8.10217 33.4999 8.5V23.036Z" fill="#5850EC" stroke="#5850EC"/>
</svg>
