<svg width="40" height="41" viewBox="0 0 40 41" fill="none" xmlns="http://www.w3.org/2000/svg">
<path d="M8 12H7.5V12.5V23.9641C6.75661 23.8568 6.06249 23.5122 5.52513 22.9749C4.86875 22.3185 4.5 21.4283 4.5 20.5V12.5C4.5 11.5717 4.86875 10.6815 5.52513 10.0251C6.1815 9.36875 7.07174 9 8 9H24C24.9283 9 25.8185 9.36875 26.4749 10.0251C27.0122 10.5625 27.3568 11.2566 27.4641 12H8ZM12.5 20.5C12.5 19.5717 12.8687 18.6815 13.5251 18.0251C14.1815 17.3687 15.0717 17 16 17H32C32.9283 17 33.8185 17.3687 34.4749 18.0251C35.1313 18.6815 35.5 19.5717 35.5 20.5V28.5C35.5 29.4283 35.1313 30.3185 34.4749 30.9749C33.8185 31.6313 32.9283 32 32 32H16C15.0717 32 14.1815 31.6313 13.5251 30.9749C12.8687 30.3185 12.5 29.4283 12.5 28.5V20.5ZM24 29C25.1935 29 26.3381 28.5259 27.182 27.682C28.0259 26.8381 28.5 25.6935 28.5 24.5C28.5 23.3065 28.0259 22.1619 27.182 21.318C26.3381 20.4741 25.1935 20 24 20C22.8065 20 21.6619 20.4741 20.818 21.318C19.9741 22.1619 19.5 23.3065 19.5 24.5C19.5 25.6935 19.9741 26.8381 20.818 27.682C21.6619 28.5259 22.8065 29 24 29Z" fill="#0E9F6E" stroke="#0E9F6E"/>
</svg>
