<svg width="40" height="40" viewBox="0 0 40 40" fill="none" xmlns="http://www.w3.org/2000/svg">
<path d="M17.5 20V20.0001C17.5001 20.6631 17.7636 21.2989 18.2325 21.7676L23.8884 27.4255L23.8884 27.4256C24.1207 27.6578 24.3964 27.842 24.6999 27.9677C25.0033 28.0934 25.3286 28.1581 25.657 28.1581C25.9854 28.1581 26.3107 28.0934 26.6141 27.9677C26.9176 27.842 27.1933 27.6578 27.4256 27.4256C27.6578 27.1933 27.842 26.9176 27.9677 26.6141C28.0934 26.3107 28.1581 25.9854 28.1581 25.657C28.1581 25.3286 28.0934 25.0033 27.9677 24.6999C27.842 24.3964 27.6578 24.1207 27.4256 23.8884L27.4255 23.8884L22.5 18.9648V12C22.5 11.337 22.2366 10.7011 21.7678 10.2322C21.2989 9.76339 20.663 9.5 20 9.5C19.337 9.5 18.7011 9.76339 18.2322 10.2322C17.7634 10.7011 17.5 11.337 17.5 12V20ZM30.9602 30.9602C28.0533 33.867 24.1109 35.5 20 35.5C15.8891 35.5 11.9467 33.867 9.03984 30.9602C6.13303 28.0533 4.5 24.1109 4.5 20C4.5 15.8891 6.13303 11.9467 9.03984 9.03984C11.9467 6.13303 15.8891 4.5 20 4.5C24.1109 4.5 28.0533 6.13303 30.9602 9.03984C33.867 11.9467 35.5 15.8891 35.5 20C35.5 24.1109 33.867 28.0533 30.9602 30.9602Z" fill="#E3A008" stroke="#E3A008"/>
</svg>
